<mxfile host="app.diagrams.net" modified="2023-01-16T02:05:10.557Z" agent="5.0 (Macintosh; Intel Mac OS X 10_15_7) AppleWebKit/537.36 (KHTML, like Gecko) Chrome/108.0.0.0 Safari/537.36" etag="0XfceaWPHNtNF9HaErFp" version="20.8.3" type="github">
  <diagram id="prtHgNgQTEPvFCAcTncT" name="Page-1">
    <mxGraphModel dx="1024" dy="496" grid="0" gridSize="10" guides="1" tooltips="1" connect="1" arrows="1" fold="1" page="0" pageScale="1" pageWidth="827" pageHeight="1169" math="0" shadow="0">
      <root>
        <mxCell id="0" />
        <mxCell id="1" parent="0" />
        <mxCell id="BCb-Wsckc3-ovvhmENYA-1" value="" style="endArrow=classic;html=1;rounded=0;" parent="1" edge="1">
          <mxGeometry width="50" height="50" relative="1" as="geometry">
            <mxPoint x="79" y="234" as="sourcePoint" />
            <mxPoint x="919" y="234" as="targetPoint" />
          </mxGeometry>
        </mxCell>
        <mxCell id="BCb-Wsckc3-ovvhmENYA-2" value="WebView初始化" style="rounded=0;whiteSpace=wrap;html=1;fontSize=14;fontFamily=Times New Roman;" parent="1" vertex="1">
          <mxGeometry x="79" y="244" width="120" height="40" as="geometry" />
        </mxCell>
        <mxCell id="BCb-Wsckc3-ovvhmENYA-3" value="建立连接" style="rounded=0;whiteSpace=wrap;html=1;fontSize=14;fontFamily=Times New Roman;" parent="1" vertex="1">
          <mxGeometry x="219" y="244" width="120" height="40" as="geometry" />
        </mxCell>
        <mxCell id="BCb-Wsckc3-ovvhmENYA-4" value="" style="endArrow=none;html=1;rounded=0;fontFamily=Times New Roman;fontSize=14;" parent="1" edge="1">
          <mxGeometry width="50" height="50" relative="1" as="geometry">
            <mxPoint x="209" y="394" as="sourcePoint" />
            <mxPoint x="209" y="244" as="targetPoint" />
          </mxGeometry>
        </mxCell>
        <mxCell id="BCb-Wsckc3-ovvhmENYA-5" value="" style="endArrow=classic;html=1;rounded=0;fontFamily=Times New Roman;fontSize=14;" parent="1" edge="1">
          <mxGeometry width="50" height="50" relative="1" as="geometry">
            <mxPoint x="79" y="354" as="sourcePoint" />
            <mxPoint x="199" y="354" as="targetPoint" />
          </mxGeometry>
        </mxCell>
        <mxCell id="BCb-Wsckc3-ovvhmENYA-6" value="无反馈" style="text;html=1;strokeColor=none;fillColor=none;align=center;verticalAlign=middle;whiteSpace=wrap;rounded=0;fontFamily=Times New Roman;fontSize=14;" parent="1" vertex="1">
          <mxGeometry x="109" y="364" width="60" height="30" as="geometry" />
        </mxCell>
        <mxCell id="6hZXc3N0psQglXJOi1we-1" value="接收页面" style="rounded=0;whiteSpace=wrap;html=1;fontSize=14;fontFamily=Times New Roman;" parent="1" vertex="1">
          <mxGeometry x="349" y="244" width="120" height="40" as="geometry" />
        </mxCell>
        <mxCell id="6hZXc3N0psQglXJOi1we-2" value="接收样式" style="rounded=0;whiteSpace=wrap;html=1;fontSize=14;fontFamily=Times New Roman;" parent="1" vertex="1">
          <mxGeometry x="399" y="294" width="70" height="40" as="geometry" />
        </mxCell>
        <mxCell id="6hZXc3N0psQglXJOi1we-3" value="渲染" style="rounded=0;whiteSpace=wrap;html=1;fontSize=14;fontFamily=Times New Roman;" parent="1" vertex="1">
          <mxGeometry x="479" y="294" width="70" height="40" as="geometry" />
        </mxCell>
        <mxCell id="6hZXc3N0psQglXJOi1we-4" value="" style="endArrow=none;html=1;rounded=0;fontFamily=Times New Roman;fontSize=14;" parent="1" edge="1">
          <mxGeometry width="50" height="50" relative="1" as="geometry">
            <mxPoint x="559" y="394" as="sourcePoint" />
            <mxPoint x="559" y="294" as="targetPoint" />
          </mxGeometry>
        </mxCell>
        <mxCell id="6hZXc3N0psQglXJOi1we-5" value="" style="endArrow=classic;html=1;rounded=0;fontFamily=Times New Roman;fontSize=14;" parent="1" edge="1">
          <mxGeometry width="50" height="50" relative="1" as="geometry">
            <mxPoint x="219" y="354" as="sourcePoint" />
            <mxPoint x="549" y="354" as="targetPoint" />
          </mxGeometry>
        </mxCell>
        <mxCell id="6hZXc3N0psQglXJOi1we-6" value="白屏" style="text;html=1;strokeColor=none;fillColor=none;align=center;verticalAlign=middle;whiteSpace=wrap;rounded=0;fontFamily=Times New Roman;fontSize=14;" parent="1" vertex="1">
          <mxGeometry x="339" y="364" width="60" height="30" as="geometry" />
        </mxCell>
        <mxCell id="6hZXc3N0psQglXJOi1we-8" value="脚本下载解析 / 执行" style="rounded=0;whiteSpace=wrap;html=1;fontSize=14;fontFamily=Times New Roman;" parent="1" vertex="1">
          <mxGeometry x="479" y="244" width="140" height="40" as="geometry" />
        </mxCell>
        <mxCell id="6hZXc3N0psQglXJOi1we-9" value="后端处理" style="rounded=0;whiteSpace=wrap;html=1;fontSize=14;fontFamily=Times New Roman;" parent="1" vertex="1">
          <mxGeometry x="629" y="244" width="90" height="40" as="geometry" />
        </mxCell>
        <mxCell id="6hZXc3N0psQglXJOi1we-10" value="接收数据" style="rounded=0;whiteSpace=wrap;html=1;fontSize=14;fontFamily=Times New Roman;" parent="1" vertex="1">
          <mxGeometry x="729" y="244" width="90" height="40" as="geometry" />
        </mxCell>
        <mxCell id="6hZXc3N0psQglXJOi1we-11" value="渲染" style="rounded=0;whiteSpace=wrap;html=1;fontSize=14;fontFamily=Times New Roman;" parent="1" vertex="1">
          <mxGeometry x="799" y="294" width="90" height="40" as="geometry" />
        </mxCell>
        <mxCell id="6hZXc3N0psQglXJOi1we-12" value="" style="endArrow=classic;html=1;rounded=0;fontFamily=Times New Roman;fontSize=14;" parent="1" edge="1">
          <mxGeometry width="50" height="50" relative="1" as="geometry">
            <mxPoint x="569" y="354" as="sourcePoint" />
            <mxPoint x="899" y="354" as="targetPoint" />
          </mxGeometry>
        </mxCell>
        <mxCell id="6hZXc3N0psQglXJOi1we-13" value="loading" style="text;html=1;strokeColor=none;fillColor=none;align=center;verticalAlign=middle;whiteSpace=wrap;rounded=0;fontFamily=Times New Roman;fontSize=14;" parent="1" vertex="1">
          <mxGeometry x="699" y="364" width="60" height="30" as="geometry" />
        </mxCell>
        <mxCell id="6hZXc3N0psQglXJOi1we-14" value="" style="endArrow=none;html=1;rounded=0;fontFamily=Times New Roman;fontSize=14;" parent="1" edge="1">
          <mxGeometry width="50" height="50" relative="1" as="geometry">
            <mxPoint x="909" y="394" as="sourcePoint" />
            <mxPoint x="909" y="244" as="targetPoint" />
            <Array as="points" />
          </mxGeometry>
        </mxCell>
        <mxCell id="6hZXc3N0psQglXJOi1we-15" value="展现" style="text;html=1;strokeColor=none;fillColor=none;align=center;verticalAlign=middle;whiteSpace=wrap;rounded=0;fontFamily=Times New Roman;fontSize=14;" parent="1" vertex="1">
          <mxGeometry x="919" y="364" width="60" height="30" as="geometry" />
        </mxCell>
        <mxCell id="6hZXc3N0psQglXJOi1we-16" value="" style="rounded=0;whiteSpace=wrap;html=1;labelBorderColor=none;dashed=1;" parent="1" vertex="1">
          <mxGeometry x="270" y="520" width="410" height="280" as="geometry" />
        </mxCell>
        <mxCell id="6hZXc3N0psQglXJOi1we-18" value="WebKit" style="text;html=1;strokeColor=none;fillColor=none;align=center;verticalAlign=middle;whiteSpace=wrap;rounded=0;fontFamily=Times New Roman;fontSize=16;" parent="1" vertex="1">
          <mxGeometry x="460" y="530" width="60" height="30" as="geometry" />
        </mxCell>
        <mxCell id="6hZXc3N0psQglXJOi1we-19" value="" style="rounded=0;whiteSpace=wrap;html=1;labelBorderColor=none;dashed=1;" parent="1" vertex="1">
          <mxGeometry x="280" y="560" width="160" height="130" as="geometry" />
        </mxCell>
        <mxCell id="6hZXc3N0psQglXJOi1we-22" value="WebContent Process" style="rounded=0;whiteSpace=wrap;html=1;labelBorderColor=none;fontSize=14;fontFamily=Times New Roman;" parent="1" vertex="1">
          <mxGeometry x="290" y="570" width="140" height="30" as="geometry" />
        </mxCell>
        <mxCell id="6hZXc3N0psQglXJOi1we-24" value="WebContent Process" style="rounded=0;whiteSpace=wrap;html=1;labelBorderColor=none;fontSize=14;fontFamily=Times New Roman;" parent="1" vertex="1">
          <mxGeometry x="290" y="610" width="140" height="30" as="geometry" />
        </mxCell>
        <mxCell id="6hZXc3N0psQglXJOi1we-26" value="..." style="text;html=1;strokeColor=none;fillColor=none;align=center;verticalAlign=middle;whiteSpace=wrap;rounded=0;labelBorderColor=none;fontFamily=Times New Roman;fontSize=16;" parent="1" vertex="1">
          <mxGeometry x="330" y="650" width="60" height="30" as="geometry" />
        </mxCell>
        <mxCell id="6hZXc3N0psQglXJOi1we-35" value="&lt;font style=&quot;font-size: 13px;&quot;&gt;CoreIPC&lt;/font&gt;" style="edgeStyle=none;rounded=0;orthogonalLoop=1;jettySize=auto;html=1;entryX=1;entryY=0.5;entryDx=0;entryDy=0;fontFamily=Times New Roman;fontSize=16;startArrow=classic;startFill=1;" parent="1" source="6hZXc3N0psQglXJOi1we-28" target="6hZXc3N0psQglXJOi1we-19" edge="1">
          <mxGeometry x="0.0041" relative="1" as="geometry">
            <mxPoint as="offset" />
          </mxGeometry>
        </mxCell>
        <mxCell id="6hZXc3N0psQglXJOi1we-28" value="Networking Process" style="rounded=0;whiteSpace=wrap;html=1;labelBorderColor=none;fontSize=14;fontFamily=Times New Roman;" parent="1" vertex="1">
          <mxGeometry x="530" y="610" width="140" height="30" as="geometry" />
        </mxCell>
        <mxCell id="6hZXc3N0psQglXJOi1we-30" style="rounded=0;orthogonalLoop=1;jettySize=auto;html=1;entryX=0.5;entryY=1;entryDx=0;entryDy=0;fontFamily=Times New Roman;fontSize=16;startArrow=classic;startFill=1;" parent="1" source="6hZXc3N0psQglXJOi1we-27" target="6hZXc3N0psQglXJOi1we-28" edge="1">
          <mxGeometry relative="1" as="geometry" />
        </mxCell>
        <mxCell id="6hZXc3N0psQglXJOi1we-31" value="CoreIPC" style="edgeLabel;html=1;align=center;verticalAlign=middle;resizable=0;points=[];fontSize=13;fontFamily=Times New Roman;" parent="6hZXc3N0psQglXJOi1we-30" vertex="1" connectable="0">
          <mxGeometry x="0.2128" y="-2" relative="1" as="geometry">
            <mxPoint as="offset" />
          </mxGeometry>
        </mxCell>
        <mxCell id="6hZXc3N0psQglXJOi1we-34" style="edgeStyle=none;rounded=0;orthogonalLoop=1;jettySize=auto;html=1;entryX=0.5;entryY=1;entryDx=0;entryDy=0;fontFamily=Times New Roman;fontSize=16;startArrow=classic;startFill=1;" parent="1" source="6hZXc3N0psQglXJOi1we-27" target="6hZXc3N0psQglXJOi1we-19" edge="1">
          <mxGeometry relative="1" as="geometry" />
        </mxCell>
        <mxCell id="6hZXc3N0psQglXJOi1we-36" value="CoreIPC" style="edgeLabel;html=1;align=center;verticalAlign=middle;resizable=0;points=[];fontSize=13;fontFamily=Times New Roman;" parent="6hZXc3N0psQglXJOi1we-34" vertex="1" connectable="0">
          <mxGeometry x="-0.0413" y="-3" relative="1" as="geometry">
            <mxPoint as="offset" />
          </mxGeometry>
        </mxCell>
        <mxCell id="6hZXc3N0psQglXJOi1we-27" value="UI Process" style="rounded=0;whiteSpace=wrap;html=1;labelBorderColor=none;fontSize=14;fontFamily=Times New Roman;" parent="1" vertex="1">
          <mxGeometry x="410" y="770" width="140" height="30" as="geometry" />
        </mxCell>
      </root>
    </mxGraphModel>
  </diagram>
</mxfile>
